<svg xmlns='http://www.w3.org/2000/svg' width='400' height='400'>
      <defs><style>.cls-multipy{mix-blend-mode: multiply;}.cls-softlight{mix-blend-mode: soft-light;}.cls-overlay{mix-blend-mode: overlay;}.cls-colorburn{mix-blend-mode: color-burn;}.cls-screen{mix-blend-mode: screen;}.cls-lighten{ mix-blend-mode: darken;}</style>
      </defs><path fill="#873e68" stroke="#000" stroke-miterlimit="10" stroke-width="5" d="M101.5,204.69c10.71-8.86,17.89,25.78,18.73,31.06,2.45,15.52-2,29.39-15.94,37.56,3.74-2.2,9.61,10.65,10.7,13A54.83,54.83,0,0,1,120.31,312a33.63,33.63,0,0,1-3.15,13.41c-3.8,7.63-16.87,17.36-25.89,13.79.5.19,3.84,13.53,4.47,14.87,2.71,5.78,6.19,11.16,9.34,16.71,1.6,2.82-6.46,7.3-8.32,8.8-1.34-4.52-3.31-8.64-4-13.33l-.57,13.24a3.44,3.44,0,0,1-.73,2.38,3,3,0,0,1-1.52.66c-4.91,1-10.38.3-15.31.87-.23-5.47,2.5-11.65,5.34-16.25q-4.65,6.92-9.31,13.84l-2.13,3.16a2.47,2.47,0,0,1-1.11,1.06,2.36,2.36,0,0,1-1.41-.09c-1-.25-11.37-2.59-11.37-3.08A77.63,77.63,0,0,0,70.31,354.4c2.17-7,1.34-11-2.24-12.95-2-1.07-4.84-1.5-8.5-1.45-24.68.36-25.54-33.85-16-49.51,2.24-3.69,5.11-8.38,9.08-10.63l-.16-.08a34.17,34.17,0,0,1-18.36-26.35c-1.53-13.6,6.07-23.26,16-31.47,1.67-1.38,14.94-12.7,16.34-11.05C54.35,196.61,44.92,179.56,46.73,160c1.58-17.06,11.21-33.89,29-37.67l1.67-.34c9.49-1.89,20.53-2.86,28.26,2.66,15.87,11.32,24.17,33.67,17.72,52.2C119.33,188.53,110.8,197,101.5,204.69Z" class="canChange" style="fill:rgb(213, 122, 218)"></path><path fill="#fff" d="M93.31,119.67a77.15,77.15,0,0,0-8.88,1.3l-1.67.34c-17.82,3.78-27.45,20.61-29,37.67-1.81,19.58,7.62,36.63,19.75,50.93-1.4-1.65-14.67,9.67-16.34,11.05-9.94,8.21-17.54,17.87-16,31.47a34.17,34.17,0,0,0,18.36,26.35l.16.08c-4,2.25-6.84,6.94-9.08,10.63-9.54,15.66-8.68,49.87,16,49.51,3.66-.05,6.51.38,8.5,1.45,3.58,1.93,4.41,5.93,2.24,12.95A77.63,77.63,0,0,1,61.63,381c0,.27,3.11,1.09,6.09,1.82l-.2.29a2.47,2.47,0,0,1-1.11,1.06,2.36,2.36,0,0,1-1.41-.09c-1-.25-11.37-2.59-11.37-3.08A77.63,77.63,0,0,0,69.31,353.4c2.17-7,1.34-11-2.24-12.95-2-1.07-4.84-1.5-8.5-1.45-24.68.36-25.54-33.85-16-49.51,2.24-3.69,5.11-8.38,9.08-10.63l-.16-.08a34.17,34.17,0,0,1-18.36-26.35c-1.53-13.6,6.07-23.26,16-31.47,1.67-1.38,14.94-12.7,16.34-11.05C53.35,195.61,43.92,178.56,45.73,159c1.58-17.06,11.21-33.89,29-37.67l1.67-.34A58.44,58.44,0,0,1,93.31,119.67Z" class="cls-overlay"></path><path fill="none" stroke="#000" stroke-miterlimit="10" stroke-width="5" d="M60.59,145.57c18.68,10.26,28.84,30,25.12,48.69,1.78-8.95,1.89-18.16,5-27,3-8.38,8.59-16.86,18.06-21.27"></path><path fill="none" stroke="#000" stroke-miterlimit="10" stroke-width="5" d="M54.59,224.57c18.68,10.26,28.84,30,25.12,48.69,1.78-8.95,1.89-18.16,5-27,3-8.38,8.59-16.86,18.06-21.27"></path><path fill="none" stroke="#000" stroke-miterlimit="10" stroke-width="5" d="M57,290c17.35,8.62,26.68,25.36,23.06,41.4,1.73-7.66,1.91-15.54,4.91-23.12,2.84-7.18,8.15-14.48,17-18.32"></path><path opacity="0.29" d="M101.5,204.69c10.71-8.86,17.89,25.78,18.73,31.06,2.45,15.52-2,29.39-15.94,37.56,3.74-2.2,9.61,10.65,10.7,13A54.83,54.83,0,0,1,120.31,312a33.63,33.63,0,0,1-3.15,13.41c-3.8,7.63-16.87,17.36-25.89,13.79.5.19,3.84,13.53,4.47,14.87,2.71,5.78,6.19,11.16,9.34,16.71,1.6,2.82-6.46,7.3-8.32,8.8-1.34-4.52-3.31-8.64-4-13.33l-.57,13.24a3.44,3.44,0,0,1-.73,2.38,3,3,0,0,1-1.52.66c-4.91,1-10.38.3-15.31.87-.23-5.47,2.5-11.65,5.34-16.25q-4.65,6.92-9.31,13.84L82.5,339.5c25-36-4-62-4-62,38-40,1-73,1-73s3-9,12-37c5-15.63-4.59-33.12-14.07-45.53,9.49-1.89,20.53-2.86,28.26,2.66,15.87,11.32,24.17,33.67,17.72,52.2C119.33,188.53,110.8,197,101.5,204.69Z"></path><path fill="#de5b59" stroke="#000" stroke-miterlimit="10" stroke-width="5" d="M60,342s4,11,6,11H96s4-8,0-11S86,335,60,342Z"></path><path fill="#873e68" stroke="#000" stroke-miterlimit="10" stroke-width="5" d="M294,205.19c-10.71-8.86-17.89,25.78-18.73,31.06-2.45,15.52,2,29.39,15.94,37.56-3.74-2.2-9.61,10.65-10.7,13a54.83,54.83,0,0,0-5.32,25.72,33.63,33.63,0,0,0,3.15,13.41c3.8,7.63,16.87,17.36,25.89,13.79-.5.19-3.84,13.53-4.47,14.87-2.71,5.78-6.19,11.16-9.34,16.71-1.6,2.82,6.46,7.3,8.32,8.8,1.34-4.52,3.31-8.64,4-13.33l.57,13.24a3.44,3.44,0,0,0,.73,2.38,3,3,0,0,0,1.52.66c4.91,1,10.38.3,15.31.87.23-5.47-2.5-11.65-5.34-16.25q4.65,6.92,9.31,13.84l2.13,3.16a2.47,2.47,0,0,0,1.11,1.06,2.36,2.36,0,0,0,1.41-.09c1-.25,11.37-2.59,11.37-3.08a77.63,77.63,0,0,1-15.68-27.64c-2.17-7-1.34-11,2.24-12.95,2-1.07,4.84-1.5,8.5-1.45,24.68.36,25.54-33.85,16-49.51-2.24-3.69-5.11-8.38-9.08-10.63l.16-.08a34.17,34.17,0,0,0,18.36-26.35c1.53-13.6-6.07-23.26-16-31.47-1.67-1.38-14.94-12.7-16.34-11.05,12.13-14.3,21.56-31.35,19.75-50.93-1.58-17.06-11.21-33.89-29-37.67l-1.67-.34c-9.49-1.89-20.53-2.86-28.26,2.66-15.87,11.32-24.17,33.67-17.72,52.2C276.21,189,284.74,197.49,294,205.19Z" class="canChange" style="fill:rgb(213, 122, 218)"></path><path fill="#fff" d="M302.23,120.17a77.15,77.15,0,0,1,8.88,1.3l1.67.34c17.82,3.78,27.45,20.61,29,37.67,1.81,19.58-7.62,36.63-19.75,50.93,1.4-1.65,14.67,9.67,16.34,11.05,9.94,8.21,17.54,17.87,16,31.47a34.17,34.17,0,0,1-18.36,26.35l-.16.08c4,2.25,6.84,6.94,9.08,10.63,9.54,15.66,8.68,49.87-16,49.51-3.66-.05-6.51.38-8.5,1.45-3.58,1.93-4.41,5.93-2.24,12.95a77.63,77.63,0,0,0,15.68,27.64c0,.27-3.11,1.09-6.09,1.82l.2.29a2.47,2.47,0,0,0,1.11,1.06,2.36,2.36,0,0,0,1.41-.09c1-.25,11.37-2.59,11.37-3.08a77.63,77.63,0,0,1-15.68-27.64c-2.17-7-1.34-11,2.24-12.95,2-1.07,4.84-1.5,8.5-1.45,24.68.36,25.54-33.85,16-49.51-2.24-3.69-5.11-8.38-9.08-10.63l.16-.08a34.17,34.17,0,0,0,18.36-26.35c1.53-13.6-6.07-23.26-16-31.47-1.67-1.38-14.94-12.7-16.34-11.05,12.13-14.3,21.56-31.35,19.75-50.93-1.58-17.06-11.21-33.89-29-37.67l-1.67-.34A58.44,58.44,0,0,0,302.23,120.17Z" class="cls-overlay"></path><path fill="none" stroke="#000" stroke-miterlimit="10" stroke-width="5" d="M335,146.07c-18.68,10.26-28.84,30-25.12,48.69-1.78-8.95-1.89-18.16-5-27-3-8.38-8.59-16.86-18.06-21.27"></path><path fill="none" stroke="#000" stroke-miterlimit="10" stroke-width="5" d="M341,225.07c-18.68,10.26-28.84,30-25.12,48.69-1.78-8.95-1.89-18.16-5-27-3-8.38-8.59-16.86-18.06-21.27"></path><path fill="none" stroke="#000" stroke-miterlimit="10" stroke-width="5" d="M338.54,290.5c-17.35,8.62-26.68,25.36-23.06,41.4-1.73-7.66-1.91-15.54-4.91-23.12-2.84-7.18-8.15-14.48-17-18.32"></path><path opacity="0.29" d="M294,205.19c-10.71-8.86-17.89,25.78-18.73,31.06-2.45,15.52,2,29.39,15.94,37.56-3.74-2.2-9.61,10.65-10.7,13a54.83,54.83,0,0,0-5.32,25.72,33.63,33.63,0,0,0,3.15,13.41c3.8,7.63,16.87,17.36,25.89,13.79-.5.19-3.84,13.53-4.47,14.87-2.71,5.78-6.19,11.16-9.34,16.71-1.6,2.82,6.46,7.3,8.32,8.8,1.34-4.52,3.31-8.64,4-13.33l.57,13.24a3.44,3.44,0,0,0,.73,2.38,3,3,0,0,0,1.52.66c4.91,1,10.38.3,15.31.87.23-5.47-2.5-11.65-5.34-16.25q4.65,6.92,9.31,13.84L313,340c-25-36,4-62,4-62-38-40-1-73-1-73s-3-9-12-37c-5-15.63,4.59-33.12,14.07-45.53-9.49-1.89-20.53-2.86-28.26,2.66-15.87,11.32-24.17,33.67-17.72,52.2C276.21,189,284.74,197.49,294,205.19Z"></path><path fill="#de5b59" stroke="#000" stroke-miterlimit="10" stroke-width="5" d="M335.54,342.5s-4,11-6,11h-30s-4-8,0-11S309.54,335.5,335.54,342.5Z"></path><path fill="#ffdbc7" stroke="#000" stroke-miterlimit="10" stroke-width="5" d="M294.07,380v19.39H105.93V380c0-38.61,18-71.1,41.88-78.94a35.64,35.64,0,0,1,8.16-1.67h0c1-.09,2-.14,3-.14h82.1c1,0,2,0,3,.14h0a35.87,35.87,0,0,1,11.1,2.78C277.51,311.65,294.07,343,294.07,380Z" class="canChange"></path><path fill="#ffdbc7" stroke="#000" stroke-miterlimit="10" stroke-width="5" d="M311.59,187.33s53.56-48.67,44.87,6.95S312.69,238,312.69,238" class="canChange"></path><path fill="none" stroke="#000" stroke-miterlimit="10" stroke-width="2" d="M345.49,178.08c-7.33,1.35-19.24,13.09-21.6,22a7.31,7.31,0,0,1,10.47-.63c3.17,2.78,4.94,8.41,4.24,13.5s-3.83,9.3-7.49,10.1" class="canChange"></path><path fill="#fff" d="M315.07,196.36c5.16-10.16,12.78-17.79,21.34-21.37,3-1.27,6.42-2,9.34-.19,4.05,2.51,6,9.35,5.7,15.49s-2.37,11.76-4.4,17.19c4.25-5.19,7.1-12.56,7.89-20.42.4-3.93.23-8.26-1.49-11.48A9.14,9.14,0,0,0,348,171a12.92,12.92,0,0,0-6.39,0c-10.12,2.14-19.41,10.61-24.85,22.65" class="cls-overlay"></path><path fill="#ffdbc7" stroke="#000" stroke-miterlimit="10" stroke-width="5" d="M88.41,187.33s-53.56-48.67-44.87,6.95S87.31,238,87.31,238" class="canChange"></path><path fill="none" stroke="#000" stroke-miterlimit="10" stroke-width="2" d="M54.51,178.08c7.33,1.35,19.24,13.09,21.6,22a7.31,7.31,0,0,0-10.47-.63c-3.17,2.78-4.94,8.41-4.24,13.5s3.83,9.3,7.49,10.1" class="canChange"></path><path fill="#fff" d="M84.93,196.36C79.77,186.2,72.15,178.57,63.59,175c-3-1.27-6.42-2-9.34-.19-4,2.51-6,9.35-5.7,15.49s2.37,11.76,4.4,17.19c-4.25-5.19-7.1-12.56-7.89-20.42-.4-3.93-.23-8.26,1.49-11.48A9.14,9.14,0,0,1,52,171a12.92,12.92,0,0,1,6.39,0c10.12,2.14,19.41,10.61,24.85,22.65" class="cls-overlay"></path><circle fill="#ffdbc7" stroke="#000" stroke-miterlimit="10" stroke-width="5" cx="199.03" cy="179.39" r="129.04" class="canChange"></circle><path fill="#fff" d="M79.76,187a128.71,128.71,0,0,0,45.12,98A129,129,0,1,1,283,81.38,129.06,129.06,0,0,0,79.76,187Z" class="cls-overlay"></path><path opacity="0.29" d="M328.31,179.39a129.06,129.06,0,0,1-252,39.18A129.08,129.08,0,0,0,312.47,117.39,128.45,128.45,0,0,1,328.31,179.39Z"></path><path fill="#873e68" stroke="#000" stroke-miterlimit="10" stroke-width="5" d="M154.5,69.5S152.67,75,149,83.26C140.37,103,121.4,138.7,92.5,153.5l3-12L69.11,172.76s-.54-6.08-.61-15.06c0-.57,0-1.16,0-1.76,0-22.91,3.09-62.07,24-70.44,4.87-2,9.79-3.68,14.62-5.22,0,0,0,0,0,0l.53-.17A299.1,299.1,0,0,1,145,71C150.9,70,154.5,69.5,154.5,69.5Z" class="canChange" style="fill:rgb(213, 122, 218)"></path><path opacity="0.29" d="M149,81.5C140.37,101.65,121.4,138,92.5,153.12l3-12.23L69.11,172.76s-.54-6.2-.61-15.36l33-32.68,4,8s6-4.08,13-18.36c4.62-9.42-4.26-25.95-10.84-36.09A294.61,294.61,0,0,1,145,69Z"></path><path fill="#fff" d="M107.12,80.28C100.34,84.91,86.2,95.81,81,112c-7.76,24.14-10.52,39.59-12.51,43.94,0-22.91,3.09-62.07,24-70.44C97.37,83.55,102.29,81.82,107.12,80.28Z" class="cls-overlay"></path><path fill="#591536" stroke="#000" stroke-miterlimit="10" stroke-width="5" d="M120.59,81.8s28.41,34,64.41,29.85,49-21.83,49-21.83L181,28.5H151"></path><path fill="#873e68" stroke="#000" stroke-miterlimit="10" stroke-width="5" d="M328.34,177.91c-3.54,54.22-2.84,111.8-30,160.89,16.93-32,37.13-185.8-28.38-191.65a76.64,76.64,0,0,1-38.44-14.64c-36.06-25.9-52.25-77-67.36-83.1A8,8,0,0,0,163,49a11.52,11.52,0,0,0-4.23-.26c-5.75.68-10.81,5.58-15,11.86h0C135,73.57,130,92.39,130,92.39l-13-7.07s-6-20.61,21-55.94a33.17,33.17,0,0,1,7.25-6.94,45.78,45.78,0,0,1,6.75-4,47.25,47.25,0,0,1,18.32-4.43,64.75,64.75,0,0,1,10.75.45c16,1.93,32.24,9,46.53,14.54,5.05,2,10.17,3.81,15.29,5.66,29.83,10.76,59.59,21.37,74.22,52.34C330.34,115.05,330.31,147.72,328.34,177.91Z" class="canChange" style="fill:rgb(213, 122, 218)"></path><path opacity="0.29" d="M328.34,177.91c-3.54,54.22-2.84,111.8-30,160.89,16.93-32,37.13-185.8-28.38-191.65a76.64,76.64,0,0,1-38.44-14.64c-12-14.64-20.34-32.29-28.39-49.59a186.23,186.23,0,0,0,61.19,46.72A191.69,191.69,0,0,1,213,63.15a205.89,205.89,0,0,0,83.45,63.79A132.26,132.26,0,0,0,256,78.62a369.68,369.68,0,0,1,53.47,33.45C303.25,99.3,294,88.28,284.6,77.67,275.53,67.45,266.11,57.4,255,49.37s-24-14-37.59-15.06a92.21,92.21,0,0,1,25.44.4c29.83,10.76,59.59,21.37,74.22,52.34C330.34,115.05,330.31,147.72,328.34,177.91Z"></path><path fill="#fff" d="M177.5,55c-4.59-2.53-8.8-4.59-13.3-5.59a26.11,26.11,0,0,0-5.43-.66,27.35,27.35,0,0,0-4.27.25c-.6,2.61-2.9-.35-4.77,1.57a28,28,0,0,0-6,10h0C135,73.57,130,92.39,130,92.39l-13-7.07s-6-20.61,21-55.94a33.17,33.17,0,0,1,7.25-6.94,45.78,45.78,0,0,1,6.75-4l18.32-4.43a64.75,64.75,0,0,1,10.75.45A18.62,18.62,0,0,1,175,15.67c-16.79.46-32.12,11.77-37.9,27.46-1.72,4.68-3.4,9.36-5.08,14a64.43,64.43,0,0,1,17.81-24A40.76,40.76,0,0,0,143,42a63.05,63.05,0,0,0-3.48,7.16,31.51,31.51,0,0,1,7.12-6.47c5-3.38,11.07-5.86,17-4.82C170.31,39,172.89,50.12,177.5,55Z" class="cls-overlay"></path><path d="M145.35,107.55a32.46,32.46,0,0,1-2.79,6.26,56.14,56.14,0,0,1-9.64,13.57c-12.71,12.93-29.72,12.85-45.45,5.34-5.78-2.75-10.86,5.87-5,8.64,18.91,9,39.75,9.59,55.81-5.21A63.67,63.67,0,0,0,155,110.2c2-6.11-7.6-8.74-9.64-2.65Z" class="canChange"></path><path d="M242.46,111.3A63.32,63.32,0,0,0,260,136.73C276.52,151,297.25,150,315.91,140.3c5.72-3,.67-11.6-5-8.64-15.43,8-32.48,8.87-45.63-3.65a56.15,56.15,0,0,1-10-13.1c-.93-1.65-1.76-3.34-2.58-5-.94-2,.06.32-.52-1.23-2.22-6-11.89-3.39-9.64,2.66Z" class="canChange"></path><path d="M96.19,180.53a155.1,155.1,0,0,1,25.25,4.11c13,3.15,29,8,36.79,19.76l2.82-3.67c-17.75-5.14-38.4-2.19-55.39,4-3,1.1-1.7,5.93,1.33,4.82,16.18-5.89,35.8-8.9,52.74-4,2,.59,4-1.83,2.82-3.67-8.22-12.4-23.93-18-37.71-21.54a162.52,162.52,0,0,0-28.65-4.81c-3.21-.22-3.2,4.78,0,5Z" class="canChange"></path><path d="M303.39,174.53a161.46,161.46,0,0,0-28.65,4.81c-13.79,3.55-29.49,9.13-37.71,21.54-1.22,1.84.8,4.26,2.82,3.67,16.94-4.9,36.55-1.89,52.73,4,3,1.11,4.34-3.72,1.33-4.82-17-6.19-37.63-9.14-55.39-4l2.83,3.67c7.8-11.77,23.79-16.61,36.79-19.76a155.1,155.1,0,0,1,25.25-4.11c3.19-.22,3.22-5.22,0-5Z" class="canChange"></path><path fill="#2e0f0e" stroke="#000" stroke-miterlimit="10" stroke-width="4" d="M214.11,268.68l-.35-.05-1.85-.37-2.14-.49c-.94-.24-1.8-.46-2.6-.68a38.07,38.07,0,0,0-4.69-1.09h0l-.72-.08a13,13,0,0,0-1.54-.06c-2.88.07-6.31,1.07-12.28,3.85a12.19,12.19,0,0,1-2.92,1,8.66,8.66,0,0,1-4.56-.26l-.47-.18c-8-3.31-10.12-18.86-1.82-26.56l.09-.08c3.32-3,8.12-4.52,12.28-2.34,2.89,1.51,4.45,4.82,7.25,6.4a6.53,6.53,0,0,0,1.14.52c6.86,2.34,15-9.52,21.23-4.6a7.28,7.28,0,0,1,1.13,1.1C227.67,252.23,225.63,270.43,214.11,268.68Z"></path><path fill="#fff" d="M220.15,243.58c-.79,2.62-1.67,5.54-2.33,7.86-.53,1.85-.93,3.3-1,3.92-.49,2.48-25.51,2-32.37,0-2.62-.75-4.16-3.16-5.08-5.85a25.91,25.91,0,0,1-1.16-5.83l.09-.08c3.32-3,8.12-4.52,12.28-2.34,2.89,1.51,4.45,4.82,7.25,6.4a6.53,6.53,0,0,0,1.14.52C205.78,250.52,213.9,238.66,220.15,243.58Z"></path><path opacity="0.18" d="M220.15,243.58c-.79,2.62-1.67,5.54-2.33,7.86-8.28-3.2-30.91-2.33-38.5-1.93a25.91,25.91,0,0,1-1.16-5.83l.09-.08c3.32-3,8.12-4.52,12.28-2.34,2.89,1.51,4.45,4.82,7.25,6.4a6.53,6.53,0,0,0,1.14.52C205.78,250.52,213.9,238.66,220.15,243.58Z"></path><path fill="#c74d5a" d="M184.82,270.63a7.12,7.12,0,0,1-4.87-.69c.13.12.25.25.38.36C181.83,270.76,183.32,271.23,184.82,270.63Z"></path><path fill="#c74d5a" d="M184.66,270.85l.17,0,0,0A.61.61,0,0,0,184.66,270.85Z"></path><path fill="#c74d5a" d="M184.24,270.92a2.83,2.83,0,0,1,.42-.07A.6.6,0,0,0,184.24,270.92Z"></path><path fill="#c74d5a" d="M199,262.76l-.28.05-1.83.32s-12.72-9.4-22.18.67a42.54,42.54,0,0,0,5.27,6.14,6.48,6.48,0,0,0,3.75.81.89.89,0,0,1,0-.26.89.89,0,0,0,0,.26,10.93,10.93,0,0,0,1.12-.12l.31-.14-.31.14c.27,0,.54-.08.8-.14v.06a13,13,0,0,0,2.31-.84c6-2.78,9.4-3.78,12.28-3.85l.41.17h1.23l-.1-.11.72.08h0a38.07,38.07,0,0,1,4.69,1.09c.8.22,1.66.44,2.6.68l2.14.49C209.3,264.91,205.14,261.77,199,262.76Z"></path><path fill="#c74d5a" d="M184.82,270.63a3.58,3.58,0,0,1-1,.25.51.51,0,0,0,.46,0,1.87,1.87,0,0,1,.61-.07l.16-.17c.2,0,.41-.08.61-.13v-.06C185.36,270.55,185.09,270.59,184.82,270.63Z"></path><path d="M204.19,265.83a4.51,4.51,0,0,0-1.44-1.17,9.19,9.19,0,0,0-1.69-.68c-1.17-.39-2.39-.58-3.71-.9a6.32,6.32,0,0,1,4-.06,5.33,5.33,0,0,1,1.84,1A2.69,2.69,0,0,1,204.19,265.83Z"></path><path opacity="0.18" d="M202.85,266.07a17.17,17.17,0,0,0-2.64-1c-6.09-1.77-11.48.94-15.2,3.87-.67.53-1.29,1.07-1.85,1.59a31.79,31.79,0,0,1-2.71-1.8,36.78,36.78,0,0,1-5.77-5.31c9.46-8.09,22.18-.54,22.18-.54l1.83-.26.28,0,1,.95,1.74,1.59Z"></path><path fill="#fff" opacity="0.49" d="M209.77,267.77c-.94-.24-1.8-.46-2.6-.68C207.78,266,208.9,266.74,209.77,267.77Z"></path><path fill="#fff" d="M214.11,268.68l-.35-.05-1.85-.37-2.14-.49c-.94-.24-1.8-.46-2.6-.68a38.07,38.07,0,0,0-4.69-1.09h0l-.72-.08a13,13,0,0,0-1.54-.06c-2.88.07-6.31,1.07-12.28,3.85a12.19,12.19,0,0,1-2.92,1,8.66,8.66,0,0,1-4.56-.26l-.47-.18c.3-2.66,1-6.16,2.21-5.21,2,1.49,29.92-1.48,31.39,0C214.34,265.8,214.32,267.36,214.11,268.68Z"></path><path fill="none" stroke="#000" stroke-miterlimit="10" stroke-width="2" d="M213.72,334s-12.37,1-12.37,17"></path><path fill="none" stroke="#000" stroke-miterlimit="10" stroke-width="2" d="M187.22,334s12.37,1,12.37,17"></path><path fill="#f7d263" stroke="#000" stroke-miterlimit="10" stroke-width="2" d="M244.51,298h0a29.38,29.38,0,0,0-3-.14h-6.11a23.76,23.76,0,0,1,4,13c0,.23,0,.45,0,.68-.47,15.93-17.55,28.74-38.56,28.74-21.3,0-38.56-13.17-38.56-29.42a23.68,23.68,0,0,1,4-13h-6.81a29.44,29.44,0,0,0-3,.14h0c-23.79,2-43.53,28.24-48.7,62.66h27.72l0,16v.75l0,20.57H266V360.65h27.17C288,326.23,268.3,300,244.51,298Z"></path><path opacity="0.29" d="M254.82,302.2c-11.79,8.17-31.09,13.49-52.9,13.49-22.76,0-42.8-5.8-54.42-14.6a36.18,36.18,0,0,1,8.16-1.67h0c1-.09,2-.14,3-.14h82.11c1,0,2,.05,3,.14h0A36.3,36.3,0,0,1,254.82,302.2Z"></path><g opacity="0.29"><path d="M292.43,362.65H276.86c-3.09-46-28.35-49.55-38.26-49.11,0-.23,0-.45,0-.68a23.76,23.76,0,0,0-4-13h6.11a29.38,29.38,0,0,1,3,.14h0C267.52,302,287.26,328.23,292.43,362.65Z"></path></g><g opacity="0.29"><path d="M108.29,361.52h15.57c3.09-46.06,28.35-49.55,38.26-49.11,0-.23,0-.45,0-.68a23.76,23.76,0,0,1,4-13H160c-1,0-2,0-3,.13h0C133.21,300.88,113.47,327.1,108.29,361.52Z"></path></g><path fill="#fff" d="M162.53,300.42v4.52s-21.55,0-33.44,18.11-16.35,39.6-16.35,39.6h-5.95s7.43-36.21,18.58-46.39S156.59,297,162.53,300.42Z" class="cls-overlay"></path><path fill="#59c8de" stroke="#000" stroke-miterlimit="10" stroke-width="5" d="M127.61,400s-.51-44.83,5.87-47.55S265.93,347,269.12,363.32,273.47,400,273.47,400Z" class="canChange" style="fill:rgb(20, 174, 191)"></path><path fill="none" stroke-dasharray="3" stroke="#000" stroke-miterlimit="10" stroke-width="0.5" d="M133.48,358.19s117.29.81,133.24,4"></path><path fill="#59c8de" stroke="#000" stroke-miterlimit="10" stroke-width="5" d="M154,354c-5.88.06-11.8-.47-17.7-.77-4.33,6.27-7.45,13.22-7.51,20.74-.13,14.7,14,23.33,25.85,23" class="canChange" style="fill:rgb(20, 174, 191)"></path><path fill="#59c8de" stroke="#000" stroke-miterlimit="10" stroke-width="5" d="M246.33,397c11.9.37,26-8.27,25.86-23-.06-7.33-3-14.13-7.2-20.29-6-.19-12-.46-18-.59" class="canChange" style="fill:rgb(20, 174, 191)"></path><path fill="#59c8de" stroke="#000" stroke-miterlimit="10" stroke-width="5" d="M266.72,351.8a2.31,2.31,0,0,1-.36.25c-4.43,2.55-18-4.25-18-4.25,2.4-7.19,3.22-46.61,3.22-46.61,4.68-2.74,10.44,1.37,13.89,4.58a33.46,33.46,0,0,1,3.06,3.19S270.71,348.61,266.72,351.8Z" class="canChange" style="fill:rgb(20, 174, 191)"></path><path fill="#fff" d="M266.72,348.6c-.15,1.22-.27,2.38-.36,3.45-4.43,2.55-18-4.25-18-4.25,2.4-7.19,3.22-46.61,3.22-46.61,4.68-2.74,10.44,1.37,13.89,4.58-2.88-.26-6,.69-7.53,5.25-3.19,9.59-3.19,31.19-2.4,31.19S267.52,342.21,266.72,348.6Z" class="cls-overlay"></path><path fill="none" stroke-dasharray="3" stroke="#000" stroke-miterlimit="10" stroke-width="0.5" d="M253.16,302.32s.4,26.69-2,41.88"></path><path fill="#9c9c9c" stroke="#000" stroke-miterlimit="10" stroke-width="0.5" d="M270.71,342.21c-1.59-2.4-15.95-7.2-22.34-8,0,0-3.19,12.79-.8,14.39s21.55,7.2,22.34,5.6S272.31,344.61,270.71,342.21Zm-3.44,9.66c-.63,1.25-15.62-3.14-17.49-4.39s.62-11.27.62-11.27c5,.62,16.24,4.38,17.5,6.26S267.9,350.61,267.27,351.87Z"></path><path fill="none" stroke-dasharray="3" stroke="#000" stroke-miterlimit="10" stroke-width="0.5" d="M267.53,308.72s.39,26.69-2,41.88"></path><ellipse fill="#9c9c9c" stroke="#000" stroke-miterlimit="10" stroke-width="0.5" cx="257.55" cy="353" rx="6.78" ry="8.4"></ellipse><ellipse fill="#c7c7c7" stroke="#000" stroke-miterlimit="10" stroke-width="0.5" cx="258.74" cy="353.4" rx="5.58" ry="6.4"></ellipse><path fill="#59c8de" stroke="#000" stroke-miterlimit="10" stroke-width="5" d="M134.28,350.19a2,2,0,0,0,.37.25c4.42,2.55,18-4.25,18-4.25-2.39-7.19-3.21-46.61-3.21-46.61-4.68-2.74-10.44,1.36-13.89,4.58a33.46,33.46,0,0,0-3.06,3.19S130.29,347,134.28,350.19Z" class="canChange" style="fill:rgb(20, 174, 191)"></path><path fill="#fff" d="M134.28,347c.15,1.22.27,2.38.37,3.45,4.42,2.55,18-4.25,18-4.25-2.39-7.19-3.21-46.61-3.21-46.61-4.68-2.74-10.44,1.36-13.89,4.58,2.88-.27,6,.69,7.53,5.24,3.19,9.6,3.19,31.2,2.39,31.19S133.48,340.59,134.28,347Z" class="cls-overlay"></path><path fill="none" stroke-dasharray="3" stroke="#000" stroke-miterlimit="10" stroke-width="0.5" d="M147.85,300.71s-.4,26.69,2,41.88"></path><path fill="#9c9c9c" stroke="#000" stroke-miterlimit="10" stroke-width="0.5" d="M131.09,352.59c.8,1.6,19.94-4,22.34-5.6s-.8-14.39-.8-14.39c-6.38.8-20.74,5.59-22.34,8S130.29,351,131.09,352.59Zm2-11.73c1.25-1.88,12.49-5.64,17.5-6.26,0,0,2.49,10,.62,11.27s-16.87,5.63-17.49,4.38S131.86,342.74,133.11,340.86Z"></path><path fill="none" stroke-dasharray="3" stroke="#000" stroke-miterlimit="10" stroke-width="0.5" d="M133.49,307.1s-.41,26.7,2,41.89"></path><ellipse fill="#9c9c9c" stroke="#000" stroke-miterlimit="10" stroke-width="0.5" cx="143.45" cy="351.39" rx="6.78" ry="8.4"></ellipse><ellipse fill="#c7c7c7" stroke="#000" stroke-miterlimit="10" stroke-width="0.5" cx="142.26" cy="351.79" rx="5.58" ry="6.4"></ellipse></svg>