<svg xmlns='http://www.w3.org/2000/svg' width='400' height='400'>
      <defs><style>.cls-multipy{mix-blend-mode: multiply;}.cls-softlight{mix-blend-mode: soft-light;}.cls-overlay{mix-blend-mode: overlay;}.cls-colorburn{mix-blend-mode: color-burn;}.cls-screen{mix-blend-mode: screen;}.cls-lighten{ mix-blend-mode: darken;}</style>
      </defs><path fill="#873e68" stroke="#000" stroke-miterlimit="10" stroke-width="5" d="M101.5,204.69c10.71-8.86,17.89,25.78,18.73,31.06,2.45,15.52-2,29.39-15.94,37.56,3.74-2.2,9.61,10.65,10.7,13A54.83,54.83,0,0,1,120.31,312a33.63,33.63,0,0,1-3.15,13.41c-3.8,7.63-16.87,17.36-25.89,13.79.5.19,3.84,13.53,4.47,14.87,2.71,5.78,6.19,11.16,9.34,16.71,1.6,2.82-6.46,7.3-8.32,8.8-1.34-4.52-3.31-8.64-4-13.33l-.57,13.24a3.44,3.44,0,0,1-.73,2.38,3,3,0,0,1-1.52.66c-4.91,1-10.38.3-15.31.87-.23-5.47,2.5-11.65,5.34-16.25q-4.65,6.92-9.31,13.84l-2.13,3.16a2.47,2.47,0,0,1-1.11,1.06,2.36,2.36,0,0,1-1.41-.09c-1-.25-11.37-2.59-11.37-3.08A77.63,77.63,0,0,0,70.31,354.4c2.17-7,1.34-11-2.24-12.95-2-1.07-4.84-1.5-8.5-1.45-24.68.36-25.54-33.85-16-49.51,2.24-3.69,5.11-8.38,9.08-10.63l-.16-.08a34.17,34.17,0,0,1-18.36-26.35c-1.53-13.6,6.07-23.26,16-31.47,1.67-1.38,14.94-12.7,16.34-11.05C54.35,196.61,44.92,179.56,46.73,160c1.58-17.06,11.21-33.89,29-37.67l1.67-.34c9.49-1.89,20.53-2.86,28.26,2.66,15.87,11.32,24.17,33.67,17.72,52.2C119.33,188.53,110.8,197,101.5,204.69Z" class="canChange" style="fill:rgb(213, 122, 218)"></path><path fill="#fff" d="M93.31,119.67a77.15,77.15,0,0,0-8.88,1.3l-1.67.34c-17.82,3.78-27.45,20.61-29,37.67-1.81,19.58,7.62,36.63,19.75,50.93-1.4-1.65-14.67,9.67-16.34,11.05-9.94,8.21-17.54,17.87-16,31.47a34.17,34.17,0,0,0,18.36,26.35l.16.08c-4,2.25-6.84,6.94-9.08,10.63-9.54,15.66-8.68,49.87,16,49.51,3.66-.05,6.51.38,8.5,1.45,3.58,1.93,4.41,5.93,2.24,12.95A77.63,77.63,0,0,1,61.63,381c0,.27,3.11,1.09,6.09,1.82l-.2.29a2.47,2.47,0,0,1-1.11,1.06,2.36,2.36,0,0,1-1.41-.09c-1-.25-11.37-2.59-11.37-3.08A77.63,77.63,0,0,0,69.31,353.4c2.17-7,1.34-11-2.24-12.95-2-1.07-4.84-1.5-8.5-1.45-24.68.36-25.54-33.85-16-49.51,2.24-3.69,5.11-8.38,9.08-10.63l-.16-.08a34.17,34.17,0,0,1-18.36-26.35c-1.53-13.6,6.07-23.26,16-31.47,1.67-1.38,14.94-12.7,16.34-11.05C53.35,195.61,43.92,178.56,45.73,159c1.58-17.06,11.21-33.89,29-37.67l1.67-.34A58.44,58.44,0,0,1,93.31,119.67Z" class="cls-overlay"></path><path fill="none" stroke="#000" stroke-miterlimit="10" stroke-width="5" d="M60.59,145.57c18.68,10.26,28.84,30,25.12,48.69,1.78-8.95,1.89-18.16,5-27,3-8.38,8.59-16.86,18.06-21.27"></path><path fill="none" stroke="#000" stroke-miterlimit="10" stroke-width="5" d="M54.59,224.57c18.68,10.26,28.84,30,25.12,48.69,1.78-8.95,1.89-18.16,5-27,3-8.38,8.59-16.86,18.06-21.27"></path><path fill="none" stroke="#000" stroke-miterlimit="10" stroke-width="5" d="M57,290c17.35,8.62,26.68,25.36,23.06,41.4,1.73-7.66,1.91-15.54,4.91-23.12,2.84-7.18,8.15-14.48,17-18.32"></path><path opacity="0.29" d="M101.5,204.69c10.71-8.86,17.89,25.78,18.73,31.06,2.45,15.52-2,29.39-15.94,37.56,3.74-2.2,9.61,10.65,10.7,13A54.83,54.83,0,0,1,120.31,312a33.63,33.63,0,0,1-3.15,13.41c-3.8,7.63-16.87,17.36-25.89,13.79.5.19,3.84,13.53,4.47,14.87,2.71,5.78,6.19,11.16,9.34,16.71,1.6,2.82-6.46,7.3-8.32,8.8-1.34-4.52-3.31-8.64-4-13.33l-.57,13.24a3.44,3.44,0,0,1-.73,2.38,3,3,0,0,1-1.52.66c-4.91,1-10.38.3-15.31.87-.23-5.47,2.5-11.65,5.34-16.25q-4.65,6.92-9.31,13.84L82.5,339.5c25-36-4-62-4-62,38-40,1-73,1-73s3-9,12-37c5-15.63-4.59-33.12-14.07-45.53,9.49-1.89,20.53-2.86,28.26,2.66,15.87,11.32,24.17,33.67,17.72,52.2C119.33,188.53,110.8,197,101.5,204.69Z"></path><path fill="#de5b59" stroke="#000" stroke-miterlimit="10" stroke-width="5" d="M60,342s4,11,6,11H96s4-8,0-11S86,335,60,342Z"></path><path fill="#873e68" stroke="#000" stroke-miterlimit="10" stroke-width="5" d="M294,205.19c-10.71-8.86-17.89,25.78-18.73,31.06-2.45,15.52,2,29.39,15.94,37.56-3.74-2.2-9.61,10.65-10.7,13a54.83,54.83,0,0,0-5.32,25.72,33.63,33.63,0,0,0,3.15,13.41c3.8,7.63,16.87,17.36,25.89,13.79-.5.19-3.84,13.53-4.47,14.87-2.71,5.78-6.19,11.16-9.34,16.71-1.6,2.82,6.46,7.3,8.32,8.8,1.34-4.52,3.31-8.64,4-13.33l.57,13.24a3.44,3.44,0,0,0,.73,2.38,3,3,0,0,0,1.52.66c4.91,1,10.38.3,15.31.87.23-5.47-2.5-11.65-5.34-16.25q4.65,6.92,9.31,13.84l2.13,3.16a2.47,2.47,0,0,0,1.11,1.06,2.36,2.36,0,0,0,1.41-.09c1-.25,11.37-2.59,11.37-3.08a77.63,77.63,0,0,1-15.68-27.64c-2.17-7-1.34-11,2.24-12.95,2-1.07,4.84-1.5,8.5-1.45,24.68.36,25.54-33.85,16-49.51-2.24-3.69-5.11-8.38-9.08-10.63l.16-.08a34.17,34.17,0,0,0,18.36-26.35c1.53-13.6-6.07-23.26-16-31.47-1.67-1.38-14.94-12.7-16.34-11.05,12.13-14.3,21.56-31.35,19.75-50.93-1.58-17.06-11.21-33.89-29-37.67l-1.67-.34c-9.49-1.89-20.53-2.86-28.26,2.66-15.87,11.32-24.17,33.67-17.72,52.2C276.21,189,284.74,197.49,294,205.19Z" class="canChange" style="fill:rgb(213, 122, 218)"></path><path fill="#fff" d="M302.23,120.17a77.15,77.15,0,0,1,8.88,1.3l1.67.34c17.82,3.78,27.45,20.61,29,37.67,1.81,19.58-7.62,36.63-19.75,50.93,1.4-1.65,14.67,9.67,16.34,11.05,9.94,8.21,17.54,17.87,16,31.47a34.17,34.17,0,0,1-18.36,26.35l-.16.08c4,2.25,6.84,6.94,9.08,10.63,9.54,15.66,8.68,49.87-16,49.51-3.66-.05-6.51.38-8.5,1.45-3.58,1.93-4.41,5.93-2.24,12.95a77.63,77.63,0,0,0,15.68,27.64c0,.27-3.11,1.09-6.09,1.82l.2.29a2.47,2.47,0,0,0,1.11,1.06,2.36,2.36,0,0,0,1.41-.09c1-.25,11.37-2.59,11.37-3.08a77.63,77.63,0,0,1-15.68-27.64c-2.17-7-1.34-11,2.24-12.95,2-1.07,4.84-1.5,8.5-1.45,24.68.36,25.54-33.85,16-49.51-2.24-3.69-5.11-8.38-9.08-10.63l.16-.08a34.17,34.17,0,0,0,18.36-26.35c1.53-13.6-6.07-23.26-16-31.47-1.67-1.38-14.94-12.7-16.34-11.05,12.13-14.3,21.56-31.35,19.75-50.93-1.58-17.06-11.21-33.89-29-37.67l-1.67-.34A58.44,58.44,0,0,0,302.23,120.17Z" class="cls-overlay"></path><path fill="none" stroke="#000" stroke-miterlimit="10" stroke-width="5" d="M335,146.07c-18.68,10.26-28.84,30-25.12,48.69-1.78-8.95-1.89-18.16-5-27-3-8.38-8.59-16.86-18.06-21.27"></path><path fill="none" stroke="#000" stroke-miterlimit="10" stroke-width="5" d="M341,225.07c-18.68,10.26-28.84,30-25.12,48.69-1.78-8.95-1.89-18.16-5-27-3-8.38-8.59-16.86-18.06-21.27"></path><path fill="none" stroke="#000" stroke-miterlimit="10" stroke-width="5" d="M338.54,290.5c-17.35,8.62-26.68,25.36-23.06,41.4-1.73-7.66-1.91-15.54-4.91-23.12-2.84-7.18-8.15-14.48-17-18.32"></path><path opacity="0.29" d="M294,205.19c-10.71-8.86-17.89,25.78-18.73,31.06-2.45,15.52,2,29.39,15.94,37.56-3.74-2.2-9.61,10.65-10.7,13a54.83,54.83,0,0,0-5.32,25.72,33.63,33.63,0,0,0,3.15,13.41c3.8,7.63,16.87,17.36,25.89,13.79-.5.19-3.84,13.53-4.47,14.87-2.71,5.78-6.19,11.16-9.34,16.71-1.6,2.82,6.46,7.3,8.32,8.8,1.34-4.52,3.31-8.64,4-13.33l.57,13.24a3.44,3.44,0,0,0,.73,2.38,3,3,0,0,0,1.52.66c4.91,1,10.38.3,15.31.87.23-5.47-2.5-11.65-5.34-16.25q4.65,6.92,9.31,13.84L313,340c-25-36,4-62,4-62-38-40-1-73-1-73s-3-9-12-37c-5-15.63,4.59-33.12,14.07-45.53-9.49-1.89-20.53-2.86-28.26,2.66-15.87,11.32-24.17,33.67-17.72,52.2C276.21,189,284.74,197.49,294,205.19Z"></path><path fill="#de5b59" stroke="#000" stroke-miterlimit="10" stroke-width="5" d="M335.54,342.5s-4,11-6,11h-30s-4-8,0-11S309.54,335.5,335.54,342.5Z"></path><path fill="#ffdbc7" stroke="#000" stroke-miterlimit="10" stroke-width="5" d="M294.07,380v19.39H105.93V380c0-38.61,18-71.1,41.88-78.94a35.64,35.64,0,0,1,8.16-1.67h0c1-.09,2-.14,3-.14h82.1c1,0,2,0,3,.14h0a35.87,35.87,0,0,1,11.1,2.78C277.51,311.65,294.07,343,294.07,380Z" class="canChange"></path><path fill="#ffdbc7" stroke="#000" stroke-miterlimit="10" stroke-width="5" d="M311.59,187.33s53.56-48.67,44.87,6.95S312.69,238,312.69,238" class="canChange"></path><path fill="none" stroke="#000" stroke-miterlimit="10" stroke-width="2" d="M345.49,178.08c-7.33,1.35-19.24,13.09-21.6,22a7.31,7.31,0,0,1,10.47-.63c3.17,2.78,4.94,8.41,4.24,13.5s-3.83,9.3-7.49,10.1" class="canChange"></path><path fill="#fff" d="M315.07,196.36c5.16-10.16,12.78-17.79,21.34-21.37,3-1.27,6.42-2,9.34-.19,4.05,2.51,6,9.35,5.7,15.49s-2.37,11.76-4.4,17.19c4.25-5.19,7.1-12.56,7.89-20.42.4-3.93.23-8.26-1.49-11.48A9.14,9.14,0,0,0,348,171a12.92,12.92,0,0,0-6.39,0c-10.12,2.14-19.41,10.61-24.85,22.65" class="cls-overlay"></path><path fill="#ffdbc7" stroke="#000" stroke-miterlimit="10" stroke-width="5" d="M88.41,187.33s-53.56-48.67-44.87,6.95S87.31,238,87.31,238" class="canChange"></path><path fill="none" stroke="#000" stroke-miterlimit="10" stroke-width="2" d="M54.51,178.08c7.33,1.35,19.24,13.09,21.6,22a7.31,7.31,0,0,0-10.47-.63c-3.17,2.78-4.94,8.41-4.24,13.5s3.83,9.3,7.49,10.1" class="canChange"></path><path fill="#fff" d="M84.93,196.36C79.77,186.2,72.15,178.57,63.59,175c-3-1.27-6.42-2-9.34-.19-4,2.51-6,9.35-5.7,15.49s2.37,11.76,4.4,17.19c-4.25-5.19-7.1-12.56-7.89-20.42-.4-3.93-.23-8.26,1.49-11.48A9.14,9.14,0,0,1,52,171a12.92,12.92,0,0,1,6.39,0c10.12,2.14,19.41,10.61,24.85,22.65" class="cls-overlay"></path><circle fill="#ffdbc7" stroke="#000" stroke-miterlimit="10" stroke-width="5" cx="199.03" cy="179.39" r="129.04" class="canChange"></circle><path fill="#fff" d="M79.76,187a128.71,128.71,0,0,0,45.12,98A129,129,0,1,1,283,81.38,129.06,129.06,0,0,0,79.76,187Z" class="cls-overlay"></path><path opacity="0.29" d="M328.31,179.39a129.06,129.06,0,0,1-252,39.18A129.08,129.08,0,0,0,312.47,117.39,128.45,128.45,0,0,1,328.31,179.39Z"></path><path fill="#873e68" stroke="#000" stroke-miterlimit="10" stroke-width="5" d="M154.5,69.5S152.67,75,149,83.26C140.37,103,121.4,138.7,92.5,153.5l3-12L69.11,172.76s-.54-6.08-.61-15.06c0-.57,0-1.16,0-1.76,0-22.91,3.09-62.07,24-70.44,4.87-2,9.79-3.68,14.62-5.22,0,0,0,0,0,0l.53-.17A299.1,299.1,0,0,1,145,71C150.9,70,154.5,69.5,154.5,69.5Z" class="canChange" style="fill:rgb(213, 122, 218)"></path><path opacity="0.29" d="M149,81.5C140.37,101.65,121.4,138,92.5,153.12l3-12.23L69.11,172.76s-.54-6.2-.61-15.36l33-32.68,4,8s6-4.08,13-18.36c4.62-9.42-4.26-25.95-10.84-36.09A294.61,294.61,0,0,1,145,69Z"></path><path fill="#fff" d="M107.12,80.28C100.34,84.91,86.2,95.81,81,112c-7.76,24.14-10.52,39.59-12.51,43.94,0-22.91,3.09-62.07,24-70.44C97.37,83.55,102.29,81.82,107.12,80.28Z" class="cls-overlay"></path><path fill="#591536" stroke="#000" stroke-miterlimit="10" stroke-width="5" d="M120.59,81.8s28.41,34,64.41,29.85,49-21.83,49-21.83L181,28.5H151"></path><path fill="#873e68" stroke="#000" stroke-miterlimit="10" stroke-width="5" d="M328.34,177.91c-3.54,54.22-2.84,111.8-30,160.89,16.93-32,37.13-185.8-28.38-191.65a76.64,76.64,0,0,1-38.44-14.64c-36.06-25.9-52.25-77-67.36-83.1A8,8,0,0,0,163,49a11.52,11.52,0,0,0-4.23-.26c-5.75.68-10.81,5.58-15,11.86h0C135,73.57,130,92.39,130,92.39l-13-7.07s-6-20.61,21-55.94a33.17,33.17,0,0,1,7.25-6.94,45.78,45.78,0,0,1,6.75-4,47.25,47.25,0,0,1,18.32-4.43,64.75,64.75,0,0,1,10.75.45c16,1.93,32.24,9,46.53,14.54,5.05,2,10.17,3.81,15.29,5.66,29.83,10.76,59.59,21.37,74.22,52.34C330.34,115.05,330.31,147.72,328.34,177.91Z" class="canChange" style="fill:rgb(213, 122, 218)"></path><path opacity="0.29" d="M328.34,177.91c-3.54,54.22-2.84,111.8-30,160.89,16.93-32,37.13-185.8-28.38-191.65a76.64,76.64,0,0,1-38.44-14.64c-12-14.64-20.34-32.29-28.39-49.59a186.23,186.23,0,0,0,61.19,46.72A191.69,191.69,0,0,1,213,63.15a205.89,205.89,0,0,0,83.45,63.79A132.26,132.26,0,0,0,256,78.62a369.68,369.68,0,0,1,53.47,33.45C303.25,99.3,294,88.28,284.6,77.67,275.53,67.45,266.11,57.4,255,49.37s-24-14-37.59-15.06a92.21,92.21,0,0,1,25.44.4c29.83,10.76,59.59,21.37,74.22,52.34C330.34,115.05,330.31,147.72,328.34,177.91Z"></path><path fill="#fff" d="M177.5,55c-4.59-2.53-8.8-4.59-13.3-5.59a26.11,26.11,0,0,0-5.43-.66,27.35,27.35,0,0,0-4.27.25c-.6,2.61-2.9-.35-4.77,1.57a28,28,0,0,0-6,10h0C135,73.57,130,92.39,130,92.39l-13-7.07s-6-20.61,21-55.94a33.17,33.17,0,0,1,7.25-6.94,45.78,45.78,0,0,1,6.75-4l18.32-4.43a64.75,64.75,0,0,1,10.75.45A18.62,18.62,0,0,1,175,15.67c-16.79.46-32.12,11.77-37.9,27.46-1.72,4.68-3.4,9.36-5.08,14a64.43,64.43,0,0,1,17.81-24A40.76,40.76,0,0,0,143,42a63.05,63.05,0,0,0-3.48,7.16,31.51,31.51,0,0,1,7.12-6.47c5-3.38,11.07-5.86,17-4.82C170.31,39,172.89,50.12,177.5,55Z" class="cls-overlay"></path><path d="M152.61,112.58c-24.82-2-74.28.74-73.41,35.38.17,6.43,10.17,6.45,10,0-.42-16.83,18.17-22.08,31.72-24.26a133.88,133.88,0,0,1,31.69-1.12c6.42.53,6.38-9.47,0-10Z" class="canChange"></path><path d="M246.55,122.14a133.33,133.33,0,0,1,31.68,1.52c13.57,2.35,32,7.84,31.35,24.69-.24,6.44,9.76,6.43,10,0,1.3-34.61-48.23-38-73-36.21-6.38.45-6.43,10.45,0,10Z" class="canChange"></path><path d="M355,158.38a31.73,31.73,0,0,1-5.87,13,40,40,0,0,1-24,15.22,31.07,31.07,0,0,1-14.23-.34,72.75,72.75,0,0,0,13.18-3.45,63.35,63.35,0,0,0,22.13-14A76.37,76.37,0,0,0,355,158.38Z"></path><path d="M340.05,147.9a55.21,55.21,0,0,1-7.72,14.54,68.94,68.94,0,0,1-25.18,21.17,54.2,54.2,0,0,1-15.67,5c4.74-2.77,9.32-5.49,13.71-8.46a146.67,146.67,0,0,0,12.61-9.48,144.78,144.78,0,0,0,11.53-10.79C333,156.12,336.49,152.08,340.05,147.9Z"></path><path d="M311.88,146a37,37,0,0,1-1.57,13,47.52,47.52,0,0,1-14.15,22.09A36.44,36.44,0,0,1,284.93,188c3-3.24,5.79-6.34,8.4-9.58a109.91,109.91,0,0,0,13.33-20.77C308.52,153.9,310.16,150,311.88,146Z"></path><g opacity="0.14" class="show"><ellipse cx="278.22" cy="192.44" rx="42.09" ry="43.67"></ellipse><path d="M278.22,150.77c22.1,0,40.09,18.69,40.09,41.67s-18,41.67-40.09,41.67-40.09-18.7-40.09-41.67,18-41.67,40.09-41.67m0-2c-23.25,0-42.09,19.55-42.09,43.67s18.84,43.67,42.09,43.67,42.09-19.56,42.09-43.67-18.85-43.67-42.09-43.67Z"></path></g><path fill="#fff" d="M319.51,190.24c0,24.12-18.85,43.67-42.09,43.67s-42.09-19.55-42.09-43.67c0-.71,0-1.42,0-2.13l.06-1.06q0-.53.09-1.05h83.78q.06.52.09,1.05l.06,1.06C319.49,188.82,319.51,189.53,319.51,190.24Z"></path><path d="M319.46,188.11l-.06-1.06q0-.53-.09-1.05c-2.05-22.13-20-39.43-41.89-39.43s-39.84,17.3-41.89,39.43q-.06.52-.09,1.05l-.06,1.06c0,.71,0,1.42,0,2.13,0,24.12,18.84,43.67,42.09,43.67s42.09-19.55,42.09-43.67C319.51,189.53,319.49,188.82,319.46,188.11Zm-42,42.8c-21.55,0-39.09-18.25-39.09-40.67a42.39,42.39,0,0,1,.21-4.24c2.05-20.44,18.71-36.43,38.88-36.43s36.83,16,38.88,36.43a42.39,42.39,0,0,1,.21,4.24C316.51,212.66,299,230.91,277.42,230.91Z"></path><g opacity="0.14" class="show"><path d="M319.51,190.24c0,24.12-18.85,43.66-42.09,43.66A41.47,41.47,0,0,1,244.13,217a52.93,52.93,0,0,0,16.33,2.57c26.18,0,47.4-18.92,47.4-42.25a39,39,0,0,0-8.75-24.47A44,44,0,0,1,319.51,190.24Z"></path><path d="M306.84,162a42.82,42.82,0,0,1,10.67,28.27c0,23-18,41.66-40.09,41.66a39,39,0,0,1-27.57-11.39,56,56,0,0,0,10.61,1c27.24,0,49.4-19.85,49.4-44.25a40.18,40.18,0,0,0-3-15.31m-7.73-9.16a39,39,0,0,1,8.75,24.47c0,23.33-21.22,42.25-47.4,42.25A52.93,52.93,0,0,1,244.13,217a41.47,41.47,0,0,0,33.29,16.94c23.24,0,42.09-19.54,42.09-43.66a44,44,0,0,0-20.4-37.43Z"></path></g><path d="M289.39,190.13A11.7,11.7,0,0,1,266,189a11,11,0,0,1,.55-2.95h22.24A11.12,11.12,0,0,1,289.39,190.13Z" class="canChange"></path><line fill="none" stroke="#000" stroke-miterlimit="10" stroke-width="4" x1="235.5" y1="185.5" x2="319.65" y2="186"></line><path d="M93.19,180.53a155.1,155.1,0,0,1,25.25,4.11c13,3.15,29,8,36.79,19.76l2.82-3.67c-17.75-5.14-38.4-2.19-55.39,4-3,1.1-1.7,5.93,1.33,4.82,16.18-5.89,35.8-8.9,52.74-4,2,.59,4-1.83,2.82-3.67-8.22-12.4-23.93-18-37.71-21.54a162.52,162.52,0,0,0-28.65-4.81c-3.21-.22-3.2,4.78,0,5Z"></path><path fill="#2e0f0e" stroke="#000" stroke-miterlimit="10" stroke-width="5" d="M223.67,263.21c-14.13,9.06-35.88,6.24-49.78-2.1-2.58-1.55-9.95-5.92-9-9.64.57-2.18,2.28-3.25,4.57-3.64,6.12-1.05,16.36,2.76,20.05,3.26a69.68,69.68,0,0,0,24.17-1.33c4.24-.93,8.86-3.17,13.32-4.82a27.07,27.07,0,0,1,8-2C236.12,250.88,230.22,259,223.67,263.21Z"></path><path fill="#c74d5a" d="M177.22,262.88c10.15,4.55,23.08,7.91,34.73,4.54a30.56,30.56,0,0,0,9.13-4.35c-10.12-8.51-23.8-4.59-23.8-4.59l-2-.56-.31-.09C182.72,254.46,177.79,261.92,177.22,262.88Z"></path><path d="M188.38,262.32a3.58,3.58,0,0,1,.67-2.85,5.29,5.29,0,0,1,2.27-1.82,5.67,5.67,0,0,1,2.81-.45,4.26,4.26,0,0,1,2.62,1.16c-.89.52-1.62.85-2.3,1.18l-1.94.86-1.89.81A22.82,22.82,0,0,0,188.38,262.32Z"></path><path opacity="0.18" d="M190.83,260.06c8.92-1.91,16.74,3.42,21.12,7.36a30.56,30.56,0,0,0,9.13-4.35c-10.12-8.51-23.8-4.59-23.8-4.59l-2-.56-.31-.09Z"></path><path fill="#fff" opacity="0.49" d="M182.21,260.08a2,2,0,0,0-.36,2.12,2.36,2.36,0,0,0,2.14,1.32,2.14,2.14,0,0,0,1.65-.85,4.69,4.69,0,0,0,.71-1.58,2.15,2.15,0,0,0,.11-1.35C185.75,257.58,183,259.21,182.21,260.08Z"></path><path fill="#fff" d="M227,245.76c-.11,3.51-.46,7.64-1.39,10.09-1.4,3.66-25.6,5.58-40.5,4.15h0c-5-.48-9-1.35-10.66-2.65a12.3,12.3,0,0,1-2.88-3.26,17.13,17.13,0,0,1-2.11-5.43c6.12-1.06,16.36,2.76,20.05,3.26a69.91,69.91,0,0,0,24.17-1.34C217.93,249.65,222.55,247.42,227,245.76Z"></path><path opacity="0.18" d="M227,245.76c-.11,3.51-.46,7.64-1.39,10.09-1.4,3.66-25.6,5.58-40.49,4.15,2.34.23,5.67-.75,8.19-.89,3.26-.18,6.52-.22,9.78-.39,6-.33,12.48-.92,17.46-4.35.28-.2.6-.54.41-.83-8.28-.43-16.61-.14-24.9,0q-7,.12-13.92.29c-1.1,0-10.11,1-10.57.25a17.13,17.13,0,0,1-2.11-5.43c6.12-1.06,16.36,2.76,20.05,3.26a69.91,69.91,0,0,0,24.17-1.34C217.93,249.65,222.55,247.42,227,245.76Z"></path><path fill="none" stroke="#000" stroke-miterlimit="10" stroke-width="2" d="M213.72,334s-12.37,1-12.37,17"></path><path fill="none" stroke="#000" stroke-miterlimit="10" stroke-width="2" d="M187.22,334s12.37,1,12.37,17"></path><path fill="#f7d263" stroke="#000" stroke-miterlimit="10" stroke-width="2" d="M244.51,298h0a29.38,29.38,0,0,0-3-.14h-6.11a23.76,23.76,0,0,1,4,13c0,.23,0,.45,0,.68-.47,15.93-17.55,28.74-38.56,28.74-21.3,0-38.56-13.17-38.56-29.42a23.68,23.68,0,0,1,4-13h-6.81a29.44,29.44,0,0,0-3,.14h0c-23.79,2-43.53,28.24-48.7,62.66h27.72l0,16v.75l0,20.57H266V360.65h27.17C288,326.23,268.3,300,244.51,298Z"></path><path opacity="0.29" d="M254.82,302.2c-11.79,8.17-31.09,13.49-52.9,13.49-22.76,0-42.8-5.8-54.42-14.6a36.18,36.18,0,0,1,8.16-1.67h0c1-.09,2-.14,3-.14h82.11c1,0,2,.05,3,.14h0A36.3,36.3,0,0,1,254.82,302.2Z"></path><g opacity="0.29"><path d="M292.43,362.65H276.86c-3.09-46-28.35-49.55-38.26-49.11,0-.23,0-.45,0-.68a23.76,23.76,0,0,0-4-13h6.11a29.38,29.38,0,0,1,3,.14h0C267.52,302,287.26,328.23,292.43,362.65Z"></path></g><g opacity="0.29"><path d="M108.29,361.52h15.57c3.09-46.06,28.35-49.55,38.26-49.11,0-.23,0-.45,0-.68a23.76,23.76,0,0,1,4-13H160c-1,0-2,0-3,.13h0C133.21,300.88,113.47,327.1,108.29,361.52Z"></path></g><path fill="#fff" d="M162.53,300.42v4.52s-21.55,0-33.44,18.11-16.35,39.6-16.35,39.6h-5.95s7.43-36.21,18.58-46.39S156.59,297,162.53,300.42Z" class="cls-overlay"></path><path fill="#59c8de" stroke="#000" stroke-miterlimit="10" stroke-width="5" d="M127.61,400s-.51-44.83,5.87-47.55S265.93,347,269.12,363.32,273.47,400,273.47,400Z" class="canChange" style="fill:rgb(20, 174, 191)"></path><path fill="none" stroke-dasharray="3" stroke="#000" stroke-miterlimit="10" stroke-width="0.5" d="M133.48,358.19s117.29.81,133.24,4"></path><path fill="#59c8de" stroke="#000" stroke-miterlimit="10" stroke-width="5" d="M154,354c-5.88.06-11.8-.47-17.7-.77-4.33,6.27-7.45,13.22-7.51,20.74-.13,14.7,14,23.33,25.85,23" class="canChange" style="fill:rgb(20, 174, 191)"></path><path fill="#59c8de" stroke="#000" stroke-miterlimit="10" stroke-width="5" d="M246.33,397c11.9.37,26-8.27,25.86-23-.06-7.33-3-14.13-7.2-20.29-6-.19-12-.46-18-.59" class="canChange" style="fill:rgb(20, 174, 191)"></path><path fill="#59c8de" stroke="#000" stroke-miterlimit="10" stroke-width="5" d="M266.72,351.8a2.31,2.31,0,0,1-.36.25c-4.43,2.55-18-4.25-18-4.25,2.4-7.19,3.22-46.61,3.22-46.61,4.68-2.74,10.44,1.37,13.89,4.58a33.46,33.46,0,0,1,3.06,3.19S270.71,348.61,266.72,351.8Z" class="canChange" style="fill:rgb(20, 174, 191)"></path><path fill="#fff" d="M266.72,348.6c-.15,1.22-.27,2.38-.36,3.45-4.43,2.55-18-4.25-18-4.25,2.4-7.19,3.22-46.61,3.22-46.61,4.68-2.74,10.44,1.37,13.89,4.58-2.88-.26-6,.69-7.53,5.25-3.19,9.59-3.19,31.19-2.4,31.19S267.52,342.21,266.72,348.6Z" class="cls-overlay"></path><path fill="none" stroke-dasharray="3" stroke="#000" stroke-miterlimit="10" stroke-width="0.5" d="M253.16,302.32s.4,26.69-2,41.88"></path><path fill="#9c9c9c" stroke="#000" stroke-miterlimit="10" stroke-width="0.5" d="M270.71,342.21c-1.59-2.4-15.95-7.2-22.34-8,0,0-3.19,12.79-.8,14.39s21.55,7.2,22.34,5.6S272.31,344.61,270.71,342.21Zm-3.44,9.66c-.63,1.25-15.62-3.14-17.49-4.39s.62-11.27.62-11.27c5,.62,16.24,4.38,17.5,6.26S267.9,350.61,267.27,351.87Z"></path><path fill="none" stroke-dasharray="3" stroke="#000" stroke-miterlimit="10" stroke-width="0.5" d="M267.53,308.72s.39,26.69-2,41.88"></path><ellipse fill="#9c9c9c" stroke="#000" stroke-miterlimit="10" stroke-width="0.5" cx="257.55" cy="353" rx="6.78" ry="8.4"></ellipse><ellipse fill="#c7c7c7" stroke="#000" stroke-miterlimit="10" stroke-width="0.5" cx="258.74" cy="353.4" rx="5.58" ry="6.4"></ellipse><path fill="#59c8de" stroke="#000" stroke-miterlimit="10" stroke-width="5" d="M134.28,350.19a2,2,0,0,0,.37.25c4.42,2.55,18-4.25,18-4.25-2.39-7.19-3.21-46.61-3.21-46.61-4.68-2.74-10.44,1.36-13.89,4.58a33.46,33.46,0,0,0-3.06,3.19S130.29,347,134.28,350.19Z" class="canChange" style="fill:rgb(20, 174, 191)"></path><path fill="#fff" d="M134.28,347c.15,1.22.27,2.38.37,3.45,4.42,2.55,18-4.25,18-4.25-2.39-7.19-3.21-46.61-3.21-46.61-4.68-2.74-10.44,1.36-13.89,4.58,2.88-.27,6,.69,7.53,5.24,3.19,9.6,3.19,31.2,2.39,31.19S133.48,340.59,134.28,347Z" class="cls-overlay"></path><path fill="none" stroke-dasharray="3" stroke="#000" stroke-miterlimit="10" stroke-width="0.5" d="M147.85,300.71s-.4,26.69,2,41.88"></path><path fill="#9c9c9c" stroke="#000" stroke-miterlimit="10" stroke-width="0.5" d="M131.09,352.59c.8,1.6,19.94-4,22.34-5.6s-.8-14.39-.8-14.39c-6.38.8-20.74,5.59-22.34,8S130.29,351,131.09,352.59Zm2-11.73c1.25-1.88,12.49-5.64,17.5-6.26,0,0,2.49,10,.62,11.27s-16.87,5.63-17.49,4.38S131.86,342.74,133.11,340.86Z"></path><path fill="none" stroke-dasharray="3" stroke="#000" stroke-miterlimit="10" stroke-width="0.5" d="M133.49,307.1s-.41,26.7,2,41.89"></path><ellipse fill="#9c9c9c" stroke="#000" stroke-miterlimit="10" stroke-width="0.5" cx="143.45" cy="351.39" rx="6.78" ry="8.4"></ellipse><ellipse fill="#c7c7c7" stroke="#000" stroke-miterlimit="10" stroke-width="0.5" cx="142.26" cy="351.79" rx="5.58" ry="6.4"></ellipse></svg>