<svg xmlns='http://www.w3.org/2000/svg' width='400' height='400'>
      <defs><style>.cls-multipy{mix-blend-mode: multiply;}.cls-softlight{mix-blend-mode: soft-light;}.cls-overlay{mix-blend-mode: overlay;}.cls-colorburn{mix-blend-mode: color-burn;}.cls-screen{mix-blend-mode: screen;}.cls-lighten{ mix-blend-mode: darken;}</style>
      </defs><path fill="#873e68" stroke="#000" stroke-miterlimit="10" stroke-width="5" d="M101.5,204.69c10.71-8.86,17.89,25.78,18.73,31.06,2.45,15.52-2,29.39-15.94,37.56,3.74-2.2,9.61,10.65,10.7,13A54.83,54.83,0,0,1,120.31,312a33.63,33.63,0,0,1-3.15,13.41c-3.8,7.63-16.87,17.36-25.89,13.79.5.19,3.84,13.53,4.47,14.87,2.71,5.78,6.19,11.16,9.34,16.71,1.6,2.82-6.46,7.3-8.32,8.8-1.34-4.52-3.31-8.64-4-13.33l-.57,13.24a3.44,3.44,0,0,1-.73,2.38,3,3,0,0,1-1.52.66c-4.91,1-10.38.3-15.31.87-.23-5.47,2.5-11.65,5.34-16.25q-4.65,6.92-9.31,13.84l-2.13,3.16a2.47,2.47,0,0,1-1.11,1.06,2.36,2.36,0,0,1-1.41-.09c-1-.25-11.37-2.59-11.37-3.08A77.63,77.63,0,0,0,70.31,354.4c2.17-7,1.34-11-2.24-12.95-2-1.07-4.84-1.5-8.5-1.45-24.68.36-25.54-33.85-16-49.51,2.24-3.69,5.11-8.38,9.08-10.63l-.16-.08a34.17,34.17,0,0,1-18.36-26.35c-1.53-13.6,6.07-23.26,16-31.47,1.67-1.38,14.94-12.7,16.34-11.05C54.35,196.61,44.92,179.56,46.73,160c1.58-17.06,11.21-33.89,29-37.67l1.67-.34c9.49-1.89,20.53-2.86,28.26,2.66,15.87,11.32,24.17,33.67,17.72,52.2C119.33,188.53,110.8,197,101.5,204.69Z" class="canChange" style="fill:rgb(213, 122, 218)"></path><path fill="#fff" d="M93.31,119.67a77.15,77.15,0,0,0-8.88,1.3l-1.67.34c-17.82,3.78-27.45,20.61-29,37.67-1.81,19.58,7.62,36.63,19.75,50.93-1.4-1.65-14.67,9.67-16.34,11.05-9.94,8.21-17.54,17.87-16,31.47a34.17,34.17,0,0,0,18.36,26.35l.16.08c-4,2.25-6.84,6.94-9.08,10.63-9.54,15.66-8.68,49.87,16,49.51,3.66-.05,6.51.38,8.5,1.45,3.58,1.93,4.41,5.93,2.24,12.95A77.63,77.63,0,0,1,61.63,381c0,.27,3.11,1.09,6.09,1.82l-.2.29a2.47,2.47,0,0,1-1.11,1.06,2.36,2.36,0,0,1-1.41-.09c-1-.25-11.37-2.59-11.37-3.08A77.63,77.63,0,0,0,69.31,353.4c2.17-7,1.34-11-2.24-12.95-2-1.07-4.84-1.5-8.5-1.45-24.68.36-25.54-33.85-16-49.51,2.24-3.69,5.11-8.38,9.08-10.63l-.16-.08a34.17,34.17,0,0,1-18.36-26.35c-1.53-13.6,6.07-23.26,16-31.47,1.67-1.38,14.94-12.7,16.34-11.05C53.35,195.61,43.92,178.56,45.73,159c1.58-17.06,11.21-33.89,29-37.67l1.67-.34A58.44,58.44,0,0,1,93.31,119.67Z" class="cls-overlay"></path><path fill="none" stroke="#000" stroke-miterlimit="10" stroke-width="5" d="M60.59,145.57c18.68,10.26,28.84,30,25.12,48.69,1.78-8.95,1.89-18.16,5-27,3-8.38,8.59-16.86,18.06-21.27"></path><path fill="none" stroke="#000" stroke-miterlimit="10" stroke-width="5" d="M54.59,224.57c18.68,10.26,28.84,30,25.12,48.69,1.78-8.95,1.89-18.16,5-27,3-8.38,8.59-16.86,18.06-21.27"></path><path fill="none" stroke="#000" stroke-miterlimit="10" stroke-width="5" d="M57,290c17.35,8.62,26.68,25.36,23.06,41.4,1.73-7.66,1.91-15.54,4.91-23.12,2.84-7.18,8.15-14.48,17-18.32"></path><path opacity="0.29" d="M101.5,204.69c10.71-8.86,17.89,25.78,18.73,31.06,2.45,15.52-2,29.39-15.94,37.56,3.74-2.2,9.61,10.65,10.7,13A54.83,54.83,0,0,1,120.31,312a33.63,33.63,0,0,1-3.15,13.41c-3.8,7.63-16.87,17.36-25.89,13.79.5.19,3.84,13.53,4.47,14.87,2.71,5.78,6.19,11.16,9.34,16.71,1.6,2.82-6.46,7.3-8.32,8.8-1.34-4.52-3.31-8.64-4-13.33l-.57,13.24a3.44,3.44,0,0,1-.73,2.38,3,3,0,0,1-1.52.66c-4.91,1-10.38.3-15.31.87-.23-5.47,2.5-11.65,5.34-16.25q-4.65,6.92-9.31,13.84L82.5,339.5c25-36-4-62-4-62,38-40,1-73,1-73s3-9,12-37c5-15.63-4.59-33.12-14.07-45.53,9.49-1.89,20.53-2.86,28.26,2.66,15.87,11.32,24.17,33.67,17.72,52.2C119.33,188.53,110.8,197,101.5,204.69Z"></path><path fill="#de5b59" stroke="#000" stroke-miterlimit="10" stroke-width="5" d="M60,342s4,11,6,11H96s4-8,0-11S86,335,60,342Z"></path><path fill="#873e68" stroke="#000" stroke-miterlimit="10" stroke-width="5" d="M294,205.19c-10.71-8.86-17.89,25.78-18.73,31.06-2.45,15.52,2,29.39,15.94,37.56-3.74-2.2-9.61,10.65-10.7,13a54.83,54.83,0,0,0-5.32,25.72,33.63,33.63,0,0,0,3.15,13.41c3.8,7.63,16.87,17.36,25.89,13.79-.5.19-3.84,13.53-4.47,14.87-2.71,5.78-6.19,11.16-9.34,16.71-1.6,2.82,6.46,7.3,8.32,8.8,1.34-4.52,3.31-8.64,4-13.33l.57,13.24a3.44,3.44,0,0,0,.73,2.38,3,3,0,0,0,1.52.66c4.91,1,10.38.3,15.31.87.23-5.47-2.5-11.65-5.34-16.25q4.65,6.92,9.31,13.84l2.13,3.16a2.47,2.47,0,0,0,1.11,1.06,2.36,2.36,0,0,0,1.41-.09c1-.25,11.37-2.59,11.37-3.08a77.63,77.63,0,0,1-15.68-27.64c-2.17-7-1.34-11,2.24-12.95,2-1.07,4.84-1.5,8.5-1.45,24.68.36,25.54-33.85,16-49.51-2.24-3.69-5.11-8.38-9.08-10.63l.16-.08a34.17,34.17,0,0,0,18.36-26.35c1.53-13.6-6.07-23.26-16-31.47-1.67-1.38-14.94-12.7-16.34-11.05,12.13-14.3,21.56-31.35,19.75-50.93-1.58-17.06-11.21-33.89-29-37.67l-1.67-.34c-9.49-1.89-20.53-2.86-28.26,2.66-15.87,11.32-24.17,33.67-17.72,52.2C276.21,189,284.74,197.49,294,205.19Z" class="canChange" style="fill:rgb(213, 122, 218)"></path><path fill="#fff" d="M302.23,120.17a77.15,77.15,0,0,1,8.88,1.3l1.67.34c17.82,3.78,27.45,20.61,29,37.67,1.81,19.58-7.62,36.63-19.75,50.93,1.4-1.65,14.67,9.67,16.34,11.05,9.94,8.21,17.54,17.87,16,31.47a34.17,34.17,0,0,1-18.36,26.35l-.16.08c4,2.25,6.84,6.94,9.08,10.63,9.54,15.66,8.68,49.87-16,49.51-3.66-.05-6.51.38-8.5,1.45-3.58,1.93-4.41,5.93-2.24,12.95a77.63,77.63,0,0,0,15.68,27.64c0,.27-3.11,1.09-6.09,1.82l.2.29a2.47,2.47,0,0,0,1.11,1.06,2.36,2.36,0,0,0,1.41-.09c1-.25,11.37-2.59,11.37-3.08a77.63,77.63,0,0,1-15.68-27.64c-2.17-7-1.34-11,2.24-12.95,2-1.07,4.84-1.5,8.5-1.45,24.68.36,25.54-33.85,16-49.51-2.24-3.69-5.11-8.38-9.08-10.63l.16-.08a34.17,34.17,0,0,0,18.36-26.35c1.53-13.6-6.07-23.26-16-31.47-1.67-1.38-14.94-12.7-16.34-11.05,12.13-14.3,21.56-31.35,19.75-50.93-1.58-17.06-11.21-33.89-29-37.67l-1.67-.34A58.44,58.44,0,0,0,302.23,120.17Z" class="cls-overlay"></path><path fill="none" stroke="#000" stroke-miterlimit="10" stroke-width="5" d="M335,146.07c-18.68,10.26-28.84,30-25.12,48.69-1.78-8.95-1.89-18.16-5-27-3-8.38-8.59-16.86-18.06-21.27"></path><path fill="none" stroke="#000" stroke-miterlimit="10" stroke-width="5" d="M341,225.07c-18.68,10.26-28.84,30-25.12,48.69-1.78-8.95-1.89-18.16-5-27-3-8.38-8.59-16.86-18.06-21.27"></path><path fill="none" stroke="#000" stroke-miterlimit="10" stroke-width="5" d="M338.54,290.5c-17.35,8.62-26.68,25.36-23.06,41.4-1.73-7.66-1.91-15.54-4.91-23.12-2.84-7.18-8.15-14.48-17-18.32"></path><path opacity="0.29" d="M294,205.19c-10.71-8.86-17.89,25.78-18.73,31.06-2.45,15.52,2,29.39,15.94,37.56-3.74-2.2-9.61,10.65-10.7,13a54.83,54.83,0,0,0-5.32,25.72,33.63,33.63,0,0,0,3.15,13.41c3.8,7.63,16.87,17.36,25.89,13.79-.5.19-3.84,13.53-4.47,14.87-2.71,5.78-6.19,11.16-9.34,16.71-1.6,2.82,6.46,7.3,8.32,8.8,1.34-4.52,3.31-8.64,4-13.33l.57,13.24a3.44,3.44,0,0,0,.73,2.38,3,3,0,0,0,1.52.66c4.91,1,10.38.3,15.31.87.23-5.47-2.5-11.65-5.34-16.25q4.65,6.92,9.31,13.84L313,340c-25-36,4-62,4-62-38-40-1-73-1-73s-3-9-12-37c-5-15.63,4.59-33.12,14.07-45.53-9.49-1.89-20.53-2.86-28.26,2.66-15.87,11.32-24.17,33.67-17.72,52.2C276.21,189,284.74,197.49,294,205.19Z"></path><path fill="#de5b59" stroke="#000" stroke-miterlimit="10" stroke-width="5" d="M335.54,342.5s-4,11-6,11h-30s-4-8,0-11S309.54,335.5,335.54,342.5Z"></path><path fill="#ffdbc7" stroke="#000" stroke-miterlimit="10" stroke-width="5" d="M294.07,380v19.39H105.93V380c0-38.61,18-71.1,41.88-78.94a35.64,35.64,0,0,1,8.16-1.67h0c1-.09,2-.14,3-.14h82.1c1,0,2,0,3,.14h0a35.87,35.87,0,0,1,11.1,2.78C277.51,311.65,294.07,343,294.07,380Z" class="canChange"></path><path fill="#ffdbc7" stroke="#000" stroke-miterlimit="10" stroke-width="5" d="M311.59,187.33s53.56-48.67,44.87,6.95S312.69,238,312.69,238" class="canChange"></path><path fill="none" stroke="#000" stroke-miterlimit="10" stroke-width="2" d="M345.49,178.08c-7.33,1.35-19.24,13.09-21.6,22a7.31,7.31,0,0,1,10.47-.63c3.17,2.78,4.94,8.41,4.24,13.5s-3.83,9.3-7.49,10.1" class="canChange"></path><path fill="#fff" d="M315.07,196.36c5.16-10.16,12.78-17.79,21.34-21.37,3-1.27,6.42-2,9.34-.19,4.05,2.51,6,9.35,5.7,15.49s-2.37,11.76-4.4,17.19c4.25-5.19,7.1-12.56,7.89-20.42.4-3.93.23-8.26-1.49-11.48A9.14,9.14,0,0,0,348,171a12.92,12.92,0,0,0-6.39,0c-10.12,2.14-19.41,10.61-24.85,22.65" class="cls-overlay"></path><path fill="#ffdbc7" stroke="#000" stroke-miterlimit="10" stroke-width="5" d="M88.41,187.33s-53.56-48.67-44.87,6.95S87.31,238,87.31,238" class="canChange"></path><path fill="none" stroke="#000" stroke-miterlimit="10" stroke-width="2" d="M54.51,178.08c7.33,1.35,19.24,13.09,21.6,22a7.31,7.31,0,0,0-10.47-.63c-3.17,2.78-4.94,8.41-4.24,13.5s3.83,9.3,7.49,10.1" class="canChange"></path><path fill="#fff" d="M84.93,196.36C79.77,186.2,72.15,178.57,63.59,175c-3-1.27-6.42-2-9.34-.19-4,2.51-6,9.35-5.7,15.49s2.37,11.76,4.4,17.19c-4.25-5.19-7.1-12.56-7.89-20.42-.4-3.93-.23-8.26,1.49-11.48A9.14,9.14,0,0,1,52,171a12.92,12.92,0,0,1,6.39,0c10.12,2.14,19.41,10.61,24.85,22.65" class="cls-overlay"></path><circle fill="#ffdbc7" stroke="#000" stroke-miterlimit="10" stroke-width="5" cx="199.03" cy="179.39" r="129.04" class="canChange"></circle><path fill="#fff" d="M79.76,187a128.71,128.71,0,0,0,45.12,98A129,129,0,1,1,283,81.38,129.06,129.06,0,0,0,79.76,187Z" class="cls-overlay"></path><path opacity="0.29" d="M328.31,179.39a129.06,129.06,0,0,1-252,39.18A129.08,129.08,0,0,0,312.47,117.39,128.45,128.45,0,0,1,328.31,179.39Z"></path><path fill="#873e68" stroke="#000" stroke-miterlimit="10" stroke-width="5" d="M154.5,69.5S152.67,75,149,83.26C140.37,103,121.4,138.7,92.5,153.5l3-12L69.11,172.76s-.54-6.08-.61-15.06c0-.57,0-1.16,0-1.76,0-22.91,3.09-62.07,24-70.44,4.87-2,9.79-3.68,14.62-5.22,0,0,0,0,0,0l.53-.17A299.1,299.1,0,0,1,145,71C150.9,70,154.5,69.5,154.5,69.5Z" class="canChange" style="fill:rgb(213, 122, 218)"></path><path opacity="0.29" d="M149,81.5C140.37,101.65,121.4,138,92.5,153.12l3-12.23L69.11,172.76s-.54-6.2-.61-15.36l33-32.68,4,8s6-4.08,13-18.36c4.62-9.42-4.26-25.95-10.84-36.09A294.61,294.61,0,0,1,145,69Z"></path><path fill="#fff" d="M107.12,80.28C100.34,84.91,86.2,95.81,81,112c-7.76,24.14-10.52,39.59-12.51,43.94,0-22.91,3.09-62.07,24-70.44C97.37,83.55,102.29,81.82,107.12,80.28Z" class="cls-overlay"></path><path fill="#591536" stroke="#000" stroke-miterlimit="10" stroke-width="5" d="M120.59,81.8s28.41,34,64.41,29.85,49-21.83,49-21.83L181,28.5H151"></path><path fill="#873e68" stroke="#000" stroke-miterlimit="10" stroke-width="5" d="M328.34,177.91c-3.54,54.22-2.84,111.8-30,160.89,16.93-32,37.13-185.8-28.38-191.65a76.64,76.64,0,0,1-38.44-14.64c-36.06-25.9-52.25-77-67.36-83.1A8,8,0,0,0,163,49a11.52,11.52,0,0,0-4.23-.26c-5.75.68-10.81,5.58-15,11.86h0C135,73.57,130,92.39,130,92.39l-13-7.07s-6-20.61,21-55.94a33.17,33.17,0,0,1,7.25-6.94,45.78,45.78,0,0,1,6.75-4,47.25,47.25,0,0,1,18.32-4.43,64.75,64.75,0,0,1,10.75.45c16,1.93,32.24,9,46.53,14.54,5.05,2,10.17,3.81,15.29,5.66,29.83,10.76,59.59,21.37,74.22,52.34C330.34,115.05,330.31,147.72,328.34,177.91Z" class="canChange" style="fill:rgb(213, 122, 218)"></path><path opacity="0.29" d="M328.34,177.91c-3.54,54.22-2.84,111.8-30,160.89,16.93-32,37.13-185.8-28.38-191.65a76.64,76.64,0,0,1-38.44-14.64c-12-14.64-20.34-32.29-28.39-49.59a186.23,186.23,0,0,0,61.19,46.72A191.69,191.69,0,0,1,213,63.15a205.89,205.89,0,0,0,83.45,63.79A132.26,132.26,0,0,0,256,78.62a369.68,369.68,0,0,1,53.47,33.45C303.25,99.3,294,88.28,284.6,77.67,275.53,67.45,266.11,57.4,255,49.37s-24-14-37.59-15.06a92.21,92.21,0,0,1,25.44.4c29.83,10.76,59.59,21.37,74.22,52.34C330.34,115.05,330.31,147.72,328.34,177.91Z"></path><path fill="#fff" d="M177.5,55c-4.59-2.53-8.8-4.59-13.3-5.59a26.11,26.11,0,0,0-5.43-.66,27.35,27.35,0,0,0-4.27.25c-.6,2.61-2.9-.35-4.77,1.57a28,28,0,0,0-6,10h0C135,73.57,130,92.39,130,92.39l-13-7.07s-6-20.61,21-55.94a33.17,33.17,0,0,1,7.25-6.94,45.78,45.78,0,0,1,6.75-4l18.32-4.43a64.75,64.75,0,0,1,10.75.45A18.62,18.62,0,0,1,175,15.67c-16.79.46-32.12,11.77-37.9,27.46-1.72,4.68-3.4,9.36-5.08,14a64.43,64.43,0,0,1,17.81-24A40.76,40.76,0,0,0,143,42a63.05,63.05,0,0,0-3.48,7.16,31.51,31.51,0,0,1,7.12-6.47c5-3.38,11.07-5.86,17-4.82C170.31,39,172.89,50.12,177.5,55Z" class="cls-overlay"></path><path d="M156.51,150c-6.12-7.11-14.7-12.65-23.32-16.15-18.46-7.5-37.8-2.94-53.34,8.85-5.07,3.84-.09,12.53,5,8.64,13.73-10.42,30.1-14.82,46.32-7.53a52.85,52.85,0,0,1,18.23,13.26c4.21,4.89,11.25-2.21,7.07-7.07Z" class="canChange"></path><path d="M245.68,130.34a53,53,0,0,1,18.23-13.26c16.21-7.31,32.6-2.88,46.32,7.53,5.13,3.88,10.12-4.8,5-8.64-15.55-11.79-34.89-16.35-53.35-8.85-8.62,3.5-17.2,9-23.32,16.15-4.18,4.86,2.86,12,7.07,7.07Z" class="canChange"></path><path d="M85.38,203.14a67.83,67.83,0,0,1,22.18-22.08c7.2-4.25,15.53-6.34,23.76-4.17,12.89,3.39,22.05,14.84,29,25.5,1.74,2.69,6.07.18,4.32-2.53-7.27-11.18-16.5-22.46-29.49-27-9-3.16-18.51-1.9-26.93,2.22-11,5.39-20.66,15.21-27.13,25.58-1.7,2.74,2.62,5.25,4.32,2.52Z" class="canChange"></path><path d="M240.38,203.14a67.83,67.83,0,0,1,22.18-22.08c7.2-4.25,15.53-6.34,23.76-4.17,12.89,3.39,22.05,14.84,29,25.5,1.74,2.69,6.07.18,4.32-2.53-7.27-11.18-16.5-22.46-29.49-27-9-3.16-18.51-1.9-26.93,2.22-11,5.39-20.66,15.21-27.13,25.58-1.7,2.74,2.62,5.25,4.32,2.52Z" class="canChange"></path><path fill="#b81f4b" stroke="#000" stroke-miterlimit="10" stroke-width="2" d="M211.36,254.05s-.27.39-.8,1c-2.8,3.32-12.79,13-25.84,1.26,0,0-.82-14,2.49-16.79,3.59-3.07,10.8,3.23,10.8,3.23a32.49,32.49,0,0,1,3.51-3.13c2.22-1.7,5-3.22,6.63-1.88C211.22,240.24,211.36,254.05,211.36,254.05Z"></path><path opacity="0.18" d="M211.36,254.05s-.27.39-.8,1l-8.89,3.05a42.32,42.32,0,0,0,3.22-13.17,5,5,0,0,0-3.37-5.31c2.22-1.7,5-3.22,6.63-1.88C211.22,240.24,211.36,254.05,211.36,254.05Z"></path><path fill="#fff" d="M186,247.47a2.68,2.68,0,0,0,.88,2.15,4.24,4.24,0,0,0,3.48.61,2.39,2.39,0,0,0,1.82-1.53,2.57,2.57,0,0,0-.39-1.79c-.71-1.41-1.62-2.81-1.21-4.35.21-.8,1.8-2.47-.74-2.3C186.34,240.49,186,246.12,186,247.47Z" class="cls-overlay"></path><path fill="#b81f4b" stroke="#000" stroke-miterlimit="10" stroke-width="2" d="M197.69,285.72s-9.42,3.41-12.44-5.22h0a19.24,19.24,0,0,1-.92-6.36S197.69,277,198.65,277l6.62-1.54,5.78-1.35S214.87,289.58,197.69,285.72Z"></path><path opacity="0.18" d="M197.69,285.72s-9.42,3.41-12.44-5.22c4.28,1.56,11.29,3.58,16.26,2.33,4-1,4.32-4.36,3.76-7.34l5.78-1.35S214.87,289.58,197.69,285.72Z"></path><path fill="#fff" d="M189.49,280.22a2.32,2.32,0,0,0,1,.08,1.09,1.09,0,0,0,.77-.56,1.17,1.17,0,0,0-.42-1.36,3.52,3.52,0,0,0-1.4-.57,14.32,14.32,0,0,0-3.19-.91A4.55,4.55,0,0,0,189.49,280.22Z" class="cls-overlay"></path><path fill="#2e0f0e" stroke="#000" stroke-miterlimit="10" stroke-width="3" d="M211,271.17a8.84,8.84,0,0,1-1.36,2.62c-2.88,3.74-8,3.92-12.56,3.79a26.52,26.52,0,0,1-7.43-.93,9.66,9.66,0,0,1-5.81-4.77,9.49,9.49,0,0,1-.82-3c-1-9.28,6.5-23.42,17.91-22.67a9.1,9.1,0,0,1,6.71,3.88C211.75,255.65,213.14,264.68,211,271.17Z"></path><path fill="#c74d5a" d="M185.67,273.37c5.45,2.68,12.41,4.37,18.75,1.33a18.12,18.12,0,0,0,5-3.6c-5.39-5.51-12.83-2-12.83-2l-1.06-.29-.17,0A8.08,8.08,0,0,0,185.67,273.37Z"></path><path d="M191.72,272.35a2.43,2.43,0,0,1-.26-2,3.08,3.08,0,0,1,1.12-1.58,3,3,0,0,1,1.87-.6,2.25,2.25,0,0,1,1.84.93c-.54.6-.84,1-1.13,1.32a5.19,5.19,0,0,1-.8.77,5.75,5.75,0,0,1-1,.55C192.94,271.89,192.47,272.07,191.72,272.35Z"></path><path opacity="0.18" d="M193.07,270.61c4.85-1.85,9,1.52,11.35,4.09a18.12,18.12,0,0,0,5-3.6c-5.39-5.51-12.83-2-12.83-2l-1.06-.29-.17,0Z"></path><path fill="#fff" opacity="0.49" d="M188.4,271.1a1.88,1.88,0,0,0-.22,1.53,1.14,1.14,0,0,0,1.15.82,1.29,1.29,0,0,0,.9-.7,4.55,4.55,0,0,0,.4-1.16,2,2,0,0,0,.08-1C190.34,269.12,188.81,270.43,188.4,271.1Z"></path><path opacity="0.18" d="M208.1,252.83a9.84,9.84,0,0,1-1.3,1.2,15.17,15.17,0,0,1-6.53,2.74,25.68,25.68,0,0,1-14.19-1.3,9.2,9.2,0,0,1,2.71-3.76c2-1.57,4.62-1.85,7.07-2.34a12.13,12.13,0,0,0,4-1.36c.69-.42,1.79-1.94,2.56-2,2.07-.18,4.38,3.8,5.13,5.44Q207.85,252.14,208.1,252.83Z"></path><path d="M183.28,263.53S178,260,178,262s-1,5,1,5,3.93-2,3.93-2"></path><path d="M212.75,263.53S218,260,218,262s1,5-1,5-3.93-2-3.93-2"></path><path fill="none" stroke="#000" stroke-miterlimit="10" stroke-width="2" d="M213.72,336s-12.37,1-12.37,17"></path><path fill="none" stroke="#000" stroke-miterlimit="10" stroke-width="2" d="M187.22,336s12.37,1,12.37,17"></path><path fill="#de5b59" stroke="#000" stroke-miterlimit="10" stroke-width="5" d="M244.51,300h0c-1-.09-2-.13-3-.13h-6.11a23.76,23.76,0,0,1,4,13c0,.23,0,.45,0,.68-.47,15.93-17.55,28.74-38.56,28.74-21.3,0-38.56-13.17-38.56-29.42a23.68,23.68,0,0,1,4-13h-6.81c-1,0-2,0-3,.13h0c-23.79,2-43.53,28.25-48.7,62.67h27.72l0,16v.75l0,20.57H266V362.66h27.17C288,328.24,268.3,302,244.51,300Z" class="canChange"></path><path opacity="0.29" d="M254.82,304.21c-11.79,8.17-31.09,13.49-52.9,13.49-22.76,0-42.8-5.81-54.42-14.6a35.64,35.64,0,0,1,8.16-1.67h0c1-.09,2-.14,3-.14h82.11c1,0,2,0,3,.14h0A35.74,35.74,0,0,1,254.82,304.21Z"></path><g opacity="0.29"><path d="M292.43,364.66H276.86c-3.09-46.06-28.35-49.55-38.26-49.11,0-.23,0-.45,0-.68a23.76,23.76,0,0,0-4-13h6.11c1,0,2,0,3,.13h0C267.52,304,287.26,330.24,292.43,364.66Z"></path></g><path fill="#fff" d="M162.53,302.42V307s-21.55,0-33.44,18.1-16.35,39.61-16.35,39.61h-5.95s7.43-36.21,18.58-46.4S156.59,299,162.53,302.42Z" class="cls-overlay"></path><path fill="#de5b59" stroke="#000" stroke-miterlimit="10" stroke-width="5" d="M153.66,333c-10.11,9.9-24.77,23.62-24.91,40-.13,14.7,14,23.34,25.86,23" class="canChange"></path><path fill="#de5b59" stroke="#000" stroke-miterlimit="10" stroke-width="5" d="M247.28,333c10.11,9.9,24.77,23.62,24.91,40,.13,14.7-14,23.34-25.86,23" class="canChange"></path></svg>